<svg xmlns="http://www.w3.org/2000/svg" width="256.02" height="187.52" viewBox="0 0 256.02 187.52"><defs><style>.cls-1{fill:#fff;}</style></defs><g id="Layer_2" data-name="Layer 2"><g id="Layer_1-2" data-name="Layer 1"><path class="cls-1" d="M65.7,64.82v87.26H33.07V64.82H0V35.44H98.63V64.82Z"/><path class="cls-1" d="M226.05,98.49l29.24,47.83a3,3,0,0,1,.44,1.63,4.26,4.26,0,0,1-3.84,4,2.5,2.5,0,0,1-2.36-1.33L219.11,98.78H170.54v49.9a3.58,3.58,0,0,1-7.09,0v-102a11,11,0,0,1,11.07-11.07H219.7c24.51,0,36.32,10.63,36.32,32V69C256,84.75,246,96.42,226.05,98.49Zm22.89-31.16c0-17.42-8.27-25.1-29.24-25.1H175.56a5,5,0,0,0-5,5V92.43H219.7c21.12,0,29.24-10.33,29.24-23.47Z"/><rect class="cls-1" x="121.13" y="-0.91" width="11.92" height="189.33" transform="translate(22.92 -24.94) rotate(12.31)"/></g></g></svg>